<?xml version="1.0" standalone="no"?><!DOCTYPE svg PUBLIC "-//W3C//DTD SVG 1.1//EN" "http://www.w3.org/Graphics/SVG/1.1/DTD/svg11.dtd"><svg t="1536275909092" class="icon" style="" viewBox="0 0 1024 1024" version="1.1" xmlns="http://www.w3.org/2000/svg" p-id="2497" xmlns:xlink="http://www.w3.org/1999/xlink" width="32" height="32"><defs><style type="text/css"></style></defs><path d="M852.701235 525.906173v361.560494c0 30.97284-24.651852 55.624691-55.624692 55.624691H630.834568V663.703704c0-15.17037-12.641975-27.812346-27.812346-27.812346H436.780247c-15.17037 0-27.812346 12.641975-27.812346 27.812346v278.755555H242.093827c-30.97284 0-55.624691-24.651852-55.624691-55.624691V525.906173h-56.25679v416.553086c0 30.97284 17.698765 55.624691 48.671605 55.624692h237.037037v-0.632099h48.039506v-319.209877h109.985185l0.632099 319.209877h48.039506v0.632099H859.654321c30.97284 0 48.671605-24.651852 48.671605-55.624692V525.906173h-55.624691zM519.585185 10.745679c-7.585185 0-14.538272 2.528395-20.22716 8.217284L22.755556 512c-10.11358 10.745679-10.11358 28.444444 1.264197 39.190123 5.05679 5.05679 12.009877 7.585185 18.962963 7.585186 7.585185 0 14.538272-2.528395 20.227161-8.217284l456.375308-472.177778 456.375309 472.177778c5.688889 5.688889 12.641975 8.217284 20.22716 8.217284 6.953086 0 13.906173-2.528395 18.962963-7.585186 10.745679-10.745679 11.377778-28.444444 0.632099-39.190123L539.812346 18.962963c-5.05679-5.688889-12.641975-8.217284-20.227161-8.217284z m0 0" p-id="2498"></path></svg>