<?xml version="1.0" standalone="no"?><!DOCTYPE svg PUBLIC "-//W3C//DTD SVG 1.1//EN" "http://www.w3.org/Graphics/SVG/1.1/DTD/svg11.dtd"><svg t="1536166615310" class="icon" style="" viewBox="0 0 1024 1024" version="1.1" xmlns="http://www.w3.org/2000/svg" p-id="2474" xmlns:xlink="http://www.w3.org/1999/xlink" width="32" height="32"><defs><style type="text/css"></style></defs><path d="M486.4 807.253333c-163.84 0-295.253333-133.12-295.253333-295.253333s133.12-295.253333 295.253333-295.253333c61.44 0 117.76 18.773333 165.546667 51.2 59.733333 0 71.68 1.706667 145.066666 1.706666-71.68-92.16-184.32-150.186667-310.613333-150.186666-218.453333 0-394.24 175.786667-394.24 394.24s175.786667 394.24 394.24 394.24c126.293333 0 237.226667-58.026667 310.613333-150.186667h-143.36c-47.786667 30.72-105.813333 49.493333-167.253333 49.493333z m196.266667-165.546666l59.733333 59.733333 189.44-189.44-189.44-189.44-59.733333 59.733333 81.92 81.92h-346.453334v95.573334h346.453334l-81.92 81.92z" p-id="2475" fill="#bfbfbf"></path></svg>